<svg aria-hidden="true" style="width:0;height:0;position:absolute;overflow:hidden" xmlns="http://www.w3.org/2000/svg"><defs><symbol id="icon-burger" viewBox="0 0 52 32"><path fill="#c4c4c4" style="fill:var(--color1,#c4c4c4)" d="M0 0h52.364v8.727H0zm14.545 23.273h37.818V32H14.545z"/></symbol><symbol id="icon-close" viewBox="0 0 32 32"><path fill="#39515e" style="fill:var(--color1,#c4c4c4)" d="m17.88 16 5.733-5.72a1.34 1.34 0 0 0-1.894-1.894l-5.72 5.733-5.72-5.733a1.34 1.34 0 0 0-1.894 1.894L14.118 16l-5.733 5.72a1.334 1.334 0 0 0 0 1.894 1.334 1.334 0 0 0 1.894 0l5.72-5.733 5.72 5.733a1.334 1.334 0 0 0 1.894 0 1.334 1.334 0 0 0 0-1.894L17.88 16z"/></symbol><symbol id="icon-clients-1" viewBox="0 0 130 32"><path fill="#8491a0" style="fill:var(--color2,#8491a0)" d="M58.885 15.477c4.093-1.35 4.837-4.766 4.826-7.549-.008-4.25-3.026-7.925-11.959-7.925L35.077 0v31.934h16.632c8.986 0 12.293-4.587 12.293-9.181 0-5.562-5.117-7.276-5.117-7.276zM42.991 6.949l11.266.009c1.268.222 2.19 1.294 2.19 2.551 0 1.285-.989 2.496-2.295 2.673l-11.154.015-.008-5.248zm10.685 17.545H42.99v-5.347l10.974.003c1.361.155 2.392 1.28 2.392 2.619 0 1.457-1.219 2.702-2.68 2.725zM101.339.005h28.177l-.015 6.97h-20.332l.018 5.147h18.331v7.005h-18.331v5.57h20.337l-.005 7.304h-28.18V.006zm-16.39.041H67.91v31.945h7.825V19.066l8.617-.009c2.469.037 4.389 2.046 4.389 4.526v8.381l7.659-.003-.015-10.31c0-4.777-4.642-6.187-4.642-6.187s4.745-1.413 4.745-7.058c0-6.909-5.973-8.36-11.538-8.36zm4.272 9.911c-.14 1.051-1.196 2.19-2.514 2.19l-10.997.005V7.037h11.002c1.314 0 2.344.962 2.51 2.225v.696zM30.004 24.271c-.113.003-10.697.206-14.35-.148-5.885-.573-7.97-4.907-7.97-8.442 0-4.41 3.025-7.656 7.71-8.265 2.228-.29 14.415-.152 14.543-.152l.256.005.026-7.266-.259.002-13.794.026c-1.534.091-4.081.247-6.688 1.306-2.55 1.177-4.671 2.901-6.282 5.032l-.03.041a15.695 15.695 0 0 0-3.168 9.493v.029-.002c0 1.086.087 2.164.264 3.2.992 4.843 4.186 8.85 8.766 11.006 1.547.677 3.931 1.489 8.742 1.755l2.59.055 9.871.009.026-7.688-.256.003z"/></symbol><symbol id="icon-clients-2" viewBox="0 0 78 32"><path fill="#8491a0" style="fill:var(--color2,#8491a0)" d="M21.53 15.556c-1.527 4.65-5.265 7.271-10.318 7.271C4.927 22.827 0 17.839 0 11.456 0 5.158 4.927 0 10.999 0c5.647 0 11.084 4.651 11.042 12.386H3.652c.467 4.524 3.95 7.187 7.559 7.187 3.101 0 5.309-1.48 6.499-4.017h3.82zm-3.481-6.383c-.89-3.551-3.864-5.918-7.05-5.918-3.015 0-6.2 2.199-7.134 5.918h14.184zm16.69 13.654c-3.143 0-5.862-1.69-7.432-3.805V32h-3.61V.55h3.482v3.467C28.708 1.819 31.51 0 34.738 0c6.285 0 10.915 5.116 10.915 11.372 0 6.34-4.63 11.454-10.914 11.454zm0-19.529c-4.035 0-7.432 3.635-7.432 8.074 0 4.48 3.396 8.158 7.432 8.158 4.076 0 7.305-3.678 7.305-8.158 0-4.439-3.229-8.074-7.305-8.074zM47.224.551h3.609V22.32h-3.609V.55zm5.222 10.918c0-6.353 5.181-11.463 11.738-11.463 6.56 0 11.741 5.109 11.741 11.463 0 6.353-5.228 11.369-11.741 11.369-6.51 0-11.738-5.016-11.738-11.369zm12.73-7.994c-5.976-.52-9.3 4.009-9.3 9.284 0 5.274 4.369 9.553 9.754 9.553h.018a9.819 9.819 0 0 0 5.652-1.779l-.032.021-1.352-3.427c1.397-1.448 2.205-3.45 2.205-5.662 0-4.373-3.068-7.627-6.946-7.99z"/><path fill="#8491a0" style="fill:var(--color2,#8491a0)" d="m62.029 13.657 10.648 8.625h5.667l-10.375-8.626z"/></symbol><symbol id="icon-clients-3" viewBox="0 0 31 32"><path fill="#8491a0" style="fill:var(--color2,#8491a0)" d="M29.546 0H.369a.369.369 0 0 0-.131.714l.003.001 26.39 8.64a.135.135 0 0 0 .162-.063v-.001l3.937-7.305A1.346 1.346 0 0 0 29.546.001zM.007 30.541a.356.356 0 0 0 .668.171l.001-.002 5.076-9.404a1.346 1.346 0 0 1 1.184-.706h12.952c.51 0 .953-.284 1.182-.701l.004-.007 3.87-7.175a.107.107 0 0 0-.002-.106v.001a.108.108 0 0 0-.092-.052H1.353c-.744 0-1.346.603-1.346 1.346V30.54z"/></symbol><symbol id="icon-clients-4" viewBox="0 0 32 32"><path fill="#8491a0" style="fill:var(--color2,#8491a0)" d="M29.696 0H15.464C6.926 0 0 5.947 0 14.487v10.042C6.234 11.782 21.387 2.828 29.696 0z"/><path fill="#8491a0" style="fill:var(--color2,#8491a0)" d="M1.524 32h12.613c8.541 0 15.465-6.924 15.465-15.465V.739C16.436 8.05 7.426 19.43 1.524 32z"/></symbol><symbol id="icon-clients-5" viewBox="0 0 197 32"><path fill="#8491a0" style="fill:var(--color2,#8491a0)" d="M10.194 11.141c0-.422-.143-.786-.43-1.092a1.404 1.404 0 0 0-1.04-.46h-.029.001c-1.338 0-2.729 1.425-4.173 4.274-1.338 2.574-2.007 4.621-2.007 6.139 0 1.373.467 2.058 1.402 2.058 1.316 0 2.633-1.33 3.949-3.988.827-1.641 1.547-3.558 2.059-5.559l.044-.201c.148-.591.224-.982.224-1.171zm3.853 7.976v.064a.237.237 0 0 0-.031.094v.001c-.445 1.075-1.03 1.994-1.752 2.753-.913.929-1.869 1.393-2.867 1.393-1.147 0-1.719-.685-1.719-2.057 0-.358.031-.707.095-1.044-1.422 2.068-2.972 3.101-4.652 3.101-.998 0-1.783-.39-2.355-1.17-.512-.676-.765-1.53-.765-2.565 0-2.109.924-4.442 2.771-6.995 1.975-2.701 3.981-4.051 6.02-4.051.87 0 1.604.38 2.199 1.139.169-.632.509-.948 1.019-.948.977 0 1.466.169 1.466.506 0 .064-.243.823-.732 2.278-1.892 5.635-2.835 8.874-2.835 9.718 0 .402.147.602.445.602.594 0 1.28-.538 2.054-1.614.776-1.075 1.174-1.614 1.194-1.614.298 0 .447.137.447.411zM30.23 6.456c0-1.772-.43-3.044-1.289-3.813-.861-.771-2.163-1.146-3.904-1.124-1.358 0-2.038.294-2.038.886v9.02c.786.128 1.358.189 1.72.189 3.695-.019 5.531-1.741 5.51-5.158zm3.759 0c0 4.22-2.879 6.33-8.632 6.33-.745 0-1.53-.041-2.358-.125v5.635c0 1.984.351 3.123 1.051 3.418.042.022.499.159 1.37.412.509.127.754.294.733.506-.022.253-.192.38-.511.38h-8.664c-.317 0-.488-.127-.508-.38-.022-.21.221-.379.732-.506.87-.253 1.326-.39 1.37-.412.7-.294 1.05-1.434 1.05-3.418V5.318c0-1.984-.349-3.123-1.05-3.418-.044-.022-.499-.159-1.37-.412-.511-.127-.755-.294-.732-.507.02-.253.191-.379.508-.379h9.334c2.209 0 3.992.453 5.35 1.361 1.551 1.011 2.327 2.51 2.327 4.494zm7.887 16.174c-.022.253-.192.38-.511.38h-6.88c-.32 0-.489-.127-.509-.38-.022-.168.223-.316.732-.443.658-.147 1.115-.305 1.37-.474s.393-.634.415-1.394V3.702c0-.568-.054-.945-.16-1.124s-.425-.269-.955-.269c-.808 0-1.211-.127-1.211-.38 0-.273.255-.463.764-.57A24.801 24.801 0 0 0 38.564.316c.147-.044.265-.064.349-.064.212 0 .339.122.383.364.042.243.064.755.064 1.536v16.141c0 2.132.137 3.272.413 3.419.148.086.605.223 1.37.412.509.148.754.316.733.506zm9.397-3.846v-3.528c-1.572.294-2.751.652-3.535 1.07-1.275.716-1.911 1.702-1.911 2.962 0 .671.196 1.212.589 1.622s.928.614 1.609.614c.849 0 1.603-.264 2.262-.788.658-.525.986-1.176.986-1.952zm5.829 2.043c-.573 1.626-1.572 2.437-2.995 2.437-1.528 0-2.463-.768-2.802-2.31-1.615 1.541-3.25 2.31-4.906 2.31-1.062 0-1.901-.305-2.516-.915s-.924-1.443-.924-2.496c0-1.915 1.041-3.346 3.123-4.293 1.188-.526 2.918-.937 5.192-1.233.064-1.999-.096-3.293-.479-3.884-.317-.526-1.039-.778-2.166-.758-.934.022-1.55.316-1.848.887l-.444 1.582c-.212.57-.669.855-1.371.855-.934 0-1.4-.401-1.4-1.203 0-1.034.646-1.836 1.942-2.406.998-.422 2.125-.632 3.377-.632 3.441.02 5.161 1.199 5.161 3.537v7.799c0 1.137.319 1.695.955 1.673.425 0 .781-.227 1.068-.681.287-.453.494-.68.622-.68h.001c.131 0 .249.054.333.142.096.095.122.186.079.269zm12.499.011c-1.381 1.786-3.08 2.678-5.097 2.678-2.103 0-3.78-.666-5.033-1.997-1.254-1.331-1.88-3.067-1.88-5.203 0-2.135.696-3.932 2.086-5.391 1.391-1.459 3.159-2.179 5.304-2.158.977 0 1.933.211 2.867.634 1.169.527 1.752 1.224 1.752 2.089 0 .823-.425 1.234-1.275 1.234-.509 0-.908-.242-1.194-.727a33.77 33.77 0 0 1-.812-1.457c-.383-.506-.914-.76-1.594-.76-1.402 0-2.463.678-3.185 2.031-.553 1.079-.828 2.391-.828 3.935 0 1.692.339 3.122 1.019 4.284.806 1.439 1.985 2.158 3.535 2.158.892 0 1.741-.32 2.548-.96.17-.15.69-.695 1.562-1.633.106-.108.201-.161.285-.161.192 0 .288.16.288.479 0 .32-.118.627-.351.925zm11.493-7.328c-.128-2.508-1.137-3.75-3.026-3.73-2.039.022-3.26 1.477-3.665 4.369h3.982c1.827 0 2.729-.214 2.708-.639zm3.026 1.334c0 .233-.116.37-.351.412h-9.492a9.606 9.606 0 0 0-.032.666c0 1.731.319 3.132.956 4.209.806 1.329 2.016 1.994 3.631 1.994 1.062 0 1.964-.232 2.707-.696.384-.253.945-.771 1.688-1.551a.392.392 0 0 1 .287-.125c.275 0 .415.125.415.379a.56.56 0 0 1-.096.284c-1.211 2.048-3.123 3.059-5.734 3.04-2.081-.023-3.758-.691-5.032-2.01-1.275-1.318-1.912-3.003-1.912-5.05 0-2.109.627-3.892 1.879-5.349 1.339-1.54 3.048-2.3 5.129-2.278 1.592 0 2.92.474 3.982 1.425 1.295 1.139 1.953 2.689 1.975 4.652zm18.667-12.786v.006c0 .324-.128.617-.336.833a1.064 1.064 0 0 1-.801.364h-.011.001c-.509 0-.914-.369-1.211-1.107s-.69-1.108-1.178-1.108c-1.105 0-1.976.646-2.612 1.938-.234.445-.605 1.558-1.116 3.337l-.858 2.986h3.151c.276 0 .416.131.416.392 0 .435-.236.653-.703.653h-3.121l-3.186 11.93c-.744 2.778-1.476 4.828-2.198 6.154-1.317 2.376-2.963 3.566-4.938 3.566a3.252 3.252 0 0 1-1.975-.632c-.573-.422-.86-.982-.86-1.678 0-.95.431-1.425 1.289-1.425.589 0 .955.232 1.101.696.042.169.064.622.064 1.361 0 .486.224.73.671.73.896 0 1.686-.803 2.368-2.404.298-.695.671-1.885 1.117-3.571l3.904-14.726H88.45c-.189 0-.285-.12-.285-.358 0-.458.201-.686.607-.686h3.185c.849-2.723 1.677-4.716 2.483-5.981C95.821 1.111 97.53.004 99.569.004c.744 0 1.434.159 2.071.474.764.38 1.147.909 1.147 1.585zm3.06 10.128c0-1.731-.584-2.596-1.752-2.596-1.338 0-2.57 1.404-3.694 4.211-.956 2.383-1.434 4.378-1.434 5.981 0 1.837.625 2.753 1.879 2.753 1.316 0 2.527-1.423 3.631-4.273.913-2.406 1.37-4.431 1.37-6.077zm2.325 1.678c0 2.195-.657 4.273-1.975 6.235-1.485 2.216-3.281 3.324-5.382 3.324-1.38 0-2.442-.549-3.186-1.646-.68-.95-1.019-2.131-1.019-3.546 0-2.172.669-4.262 2.007-6.267 1.508-2.236 3.302-3.354 5.382-3.354 1.381 0 2.442.548 3.187 1.645.658.972.986 2.173.986 3.61zm12.899-3.514c0 .38-.113.727-.335 1.044-.223.316-.516.474-.877.474-.36 0-.636-.22-.828-.663s-.445-.666-.763-.666c-1.169 0-3.081 4.157-5.734 12.471h-2.484c.637-2.131 1.274-4.273 1.911-6.426.998-3.397 1.498-5.307 1.498-5.729 0-.358-.16-.538-.477-.538-.575 0-1.116.348-1.626 1.044-.17.211-.509.791-1.019 1.741-.128.253-.307.38-.541.38-.32 0-.477-.128-.477-.38l.031-.128c.276-1.053.818-2.013 1.626-2.879.911-.95 1.879-1.425 2.898-1.425 1.125 0 1.688.644 1.688 1.932 0 .401-.074.896-.223 1.487-.15.506-.287 1.002-.415 1.487 1.613-3.27 3.132-4.906 4.554-4.906.468 0 .851.164 1.148.492.297.326.447.722.447 1.187zm29.082 12.28c-.02.255-.191.381-.509.381h-8.41c-.319 0-.489-.128-.509-.38-.022-.211.223-.38.732-.507.87-.253 1.327-.39 1.37-.411.701-.296 1.051-1.434 1.051-3.419V3.355l-8.219 19.244c-.189.443-.339.666-.445.666s-.285-.285-.541-.855l-7.072-16.143a15.804 15.804 0 0 0-1.185-2.248l.038.065.192 14.212c.02 1.012.064 1.699.128 2.058.147.695.456 1.149.924 1.361.041.02.498.157 1.368.411.509.128.754.296.733.507-.022.253-.191.38-.511.38h-6.816c-.319 0-.489-.128-.509-.38-.022-.211.223-.38.732-.507.87-.253 1.327-.39 1.37-.411.467-.211.776-.686.923-1.425.086-.358.128-1.024.128-1.994l.16-15.572c-.34-.274-.84-.549-1.498-.823-.64-.17-1.097-.311-1.548-.465l.178.053c-.511-.125-.754-.294-.732-.506.02-.253.191-.38.509-.38h3.822c1.444.022 2.272.09 2.484.205.211.118.531.671.956 1.664l6.785 15.793 7.327-17.187c.127-.316.413-.474.859-.474h5.225c.319 0 .489.125.509.379.02.211-.223.38-.732.506-.872.253-1.327.392-1.37.412-.701.296-1.052 1.436-1.052 3.418v12.978c0 1.984.351 3.123 1.052 3.418.042.022.498.159 1.37.412.509.128.753.296.732.507zm12.169-6.473c0-1.755-.288-3.192-.861-4.315-.742-1.459-1.901-2.189-3.471-2.189-1.572 0-2.729.751-3.471 2.253-.573 1.121-.86 2.548-.86 4.284 0 1.691.287 3.098.86 4.219.764 1.439 1.921 2.158 3.471 2.158 1.571 0 2.729-.719 3.471-2.158.573-1.12.861-2.538.861-4.252zm3.057-.189c0 2.157-.7 3.955-2.102 5.393-1.402 1.439-3.186 2.157-5.352 2.157s-3.918-.677-5.254-2.03c-1.34-1.354-2.008-3.119-2.008-5.297 0-2.157.701-3.933 2.103-5.33 1.4-1.395 3.186-2.093 5.352-2.093 2.058 0 3.785.687 5.176 2.061 1.39 1.375 2.085 3.087 2.085 5.139zm27.491 6.664c-.022.253-.192.379-.511.379h-6.88c-.319 0-.489-.125-.509-.379-.02-.168.223-.315.732-.443.658-.147 1.12-.31 1.386-.488.265-.179.398-1.311.398-3.395v-4.105c0-1.284-.159-2.221-.477-2.81-.425-.8-1.243-1.201-2.454-1.201-1.019 0-1.891.311-2.611.932-.723.622-1.083 1.384-1.083 2.29v4.893c.02 1.262.031 1.957.031 2.084.044.758.17 1.199.383 1.326.211.127.669.273 1.37.442.509.127.753.284.733.474-.022.253-.192.379-.509.379h-6.881c-.319 0-.489-.125-.509-.379-.022-.168.223-.315.732-.443.658-.147 1.119-.31 1.386-.488.265-.179.398-1.311.398-3.395V14.2c0-1.284-.159-2.221-.479-2.81-.424-.8-1.242-1.201-2.452-1.201-1.02 0-1.889.311-2.611.932-.722.622-1.083 1.384-1.083 2.29v4.893c0 2.125.137 3.263.413 3.41.148.084.604.221 1.37.41.509.147.754.316.733.506-.023.253-.192.379-.509.379h-6.881c-.319 0-.489-.127-.509-.38-.022-.168.233-.305.763-.411.659-.128 1.116-.301 1.371-.522s.383-1.357.383-3.404v-6.044c0-.571-.052-.945-.16-1.124-.106-.179-.425-.269-.956-.269-.806 0-1.21-.128-1.21-.38 0-.274.253-.465.763-.57 1.23-.253 2.44-.602 3.626-1.046.192-.041.319-.063.383-.063.191 0 .307.138.351.412.019.189.041.728.063 1.613.466-.602 1.149-1.088 2.052-1.463a7.073 7.073 0 0 1 2.782-.562c2.207 0 3.585.813 4.137 2.438 1.272-1.626 3.053-2.438 5.344-2.438 1.74 0 2.938.474 3.596 1.421.721 1.033 1.08 2.653 1.08 4.864v3.222c0 1.199.012 1.894.032 2.084.044.759.17 1.201.383 1.327.212.125.669.273 1.371.442.508.127.753.284.732.474zm2.848-1.429a.734.734 0 0 0-.23-.036l-.031.001h.001-.109v.494h.175l.022.001a.406.406 0 0 0 .223-.066l-.002.001c.059-.041.088-.109.088-.201s-.046-.157-.138-.192zm-.815 1.363v-1.697h.475c.212 0 .329.003.353.004a.817.817 0 0 1 .337.087c.152.083.228.218.228.406 0 .142-.04.246-.12.307a.557.557 0 0 1-.294.115h-.002a.564.564 0 0 1 .244.1l-.002-.001c.101.081.151.207.151.381v.151c0 .036.006.07.017.102l-.001-.002.015.047h-.428a1.18 1.18 0 0 1-.028-.233v-.008a.698.698 0 0 0-.03-.206l.001.005a.207.207 0 0 0-.124-.125h-.001a.483.483 0 0 0-.152-.027l-.099-.006h-.095v.602h-.447zm-.23-1.739a1.216 1.216 0 0 0-.369.874v.013-.001c0 .356.125.657.375.905.248.248.548.371.9.371h.018c.345 0 .657-.143.879-.374.23-.225.373-.538.373-.885v-.018.001-.01c0-.344-.142-.655-.371-.877a1.21 1.21 0 0 0-.885-.383h-.015.001c-.355 0-.657.128-.906.384zm1.985 1.986a1.493 1.493 0 0 1-1.054.433h-.026.001-.033a1.49 1.49 0 0 1-1.063-.443 1.47 1.47 0 0 1-.446-1.056v-.033.002c0-.448.161-.82.481-1.116a1.513 1.513 0 0 1 1.061-.416c.425 0 .788.148 1.089.448s.452.662.452 1.083c0 .435-.154.801-.462 1.101z"/></symbol><symbol id="icon-clients-6" viewBox="0 0 64 32"><path fill="#8491a0" style="fill:var(--color2,#8491a0)" d="M44.576 10.459c.235 0 .466-.015.692-.046l8.853 12.876a5.23 5.23 0 1 0 1.957-1.376l.035-.012-8.498-12.416a5.23 5.23 0 1 0-5.941.094l.019.012-8.421 12.213a5.119 5.119 0 0 0-1.647-.266c-.513 0-1.009.074-1.477.212l.037-.009L21.81 9.592a5.23 5.23 0 1 0-5.955-.13l.015.01-8.613 12.475a5.23 5.23 0 1 0 2.006 1.494l.007.009 8.963-13.038c.207.029.446.045.689.045.165 0 .328-.008.489-.022l-.021.002 8.67 12.504a5.23 5.23 0 1 0 7.277.145l8.771-12.648c.154.012.309.02.466.02z"/></symbol><symbol id="icon-dribbble-logo" viewBox="0 0 32 32"><path fill="#e94b88" style="fill:var(--color3,#e94b88)" d="M16 29.333C8.648 29.333 2.667 23.352 2.667 16S8.648 2.667 16 2.667 29.333 8.648 29.333 16 23.352 29.333 16 29.333zm11.244-11.508c-.389-.123-3.524-1.059-7.093-.487 1.489 4.093 2.096 7.427 2.213 8.12 2.556-1.742 4.349-4.439 4.871-7.567l.009-.067zm-6.796 8.676c-.169-1-.831-4.481-2.429-8.637l-.075.027c-6.424 2.237-8.729 6.693-8.933 7.112a11.297 11.297 0 0 0 6.992 2.403 11.34 11.34 0 0 0 4.519-.933l-.074.028zM7.539 23.632c.259-.441 3.384-5.616 9.257-7.515.149-.048.299-.093.449-.136a33.92 33.92 0 0 0-1.024-2.145l.1.211c-5.687 1.703-11.205 1.632-11.704 1.621a11.299 11.299 0 0 0 2.93 7.972l-.009-.01zm-2.687-9.947c.509.007 5.201.027 10.528-1.388A71.513 71.513 0 0 0 11.013 5.5l.145.21c-3.198 1.534-5.537 4.42-6.293 7.898l-.014.075zm8.48-8.74a59.33 59.33 0 0 1 4.09 6.358l.158.309c4.051-1.517 5.765-3.821 5.969-4.113a11.324 11.324 0 0 0-7.553-2.87c-.946 0-1.865.115-2.743.333l.078-.016zm11.484 3.871c-.24.324-2.149 2.771-6.36 4.489.268.518.603 1.254.914 2.004l.086.234c3.791-.476 7.556.288 7.932.367a11.292 11.292 0 0 0-2.589-7.113l.015.019z"/></symbol><symbol id="icon-linkedin-logo" viewBox="0 0 32 32"><path fill="#0077b5" style="fill:var(--color4,#0077b5)" d="M26.2 4H5.8C4.84 4 4 4.724 4 5.688v20.624C4 27.276 4.84 28 5.8 28h20.4c.96 0 1.8-.724 1.8-1.688V5.688C28 4.844 27.16 4 26.2 4zM11.08 24.623h-3.6V13.166h3.6v11.457zm-1.8-13.146c-1.2 0-2.04-.965-2.04-2.051s.96-2.049 2.04-2.049 2.04.964 2.04 2.049c.12 1.207-.84 2.051-2.04 2.051zM24.4 24.624h-3.6v-5.548c0-1.327 0-3.016-1.8-3.016s-2.16 1.448-2.16 3.016v5.667h-3.6V13.288h3.36v1.568c.48-.965 1.68-1.809 3.36-1.809 3.6 0 4.32 2.412 4.32 5.427v6.151h.12z"/></symbol><symbol id="icon-logo" viewBox="0 0 105 32"><path fill="#fff" style="fill:var(--color5,#fff)" d="M6.48 31.6H0V0h7.24c1.493 0 2.707.08 3.64.24.96.133 1.707.427 2.24.88s.893 1.107 1.08 1.96c.213.827.32 1.947.32 3.36v3.28c0 .827-.093 1.507-.28 2.04s-.427.96-.72 1.28c-.267.32-.56.56-.88.72-.32.133-.613.227-.88.28v.16c.4.107.76.267 1.08.48.347.187.64.48.88.88s.427.933.56 1.6c.16.64.24 1.467.24 2.48V31.6H8v-14c0-.347-.04-.573-.12-.68-.08-.133-.293-.2-.64-.2h-.76V31.6zm0-19.96h.76c.347 0 .56-.053.64-.16.08-.133.12-.373.12-.72V6.44c0-.347-.04-.573-.12-.68-.08-.133-.293-.2-.64-.2h-.76v6.08zm23.221 15.28c0 1.12-.093 2.013-.28 2.68-.16.667-.48 1.187-.96 1.56-.453.347-1.093.573-1.92.68-.8.107-1.853.16-3.16.16-1.28 0-2.333-.053-3.16-.16s-1.467-.333-1.92-.68c-.453-.373-.773-.893-.96-1.56-.16-.667-.24-1.56-.24-2.68v-14.6c0-1.12.08-2.013.24-2.68.187-.667.507-1.173.96-1.52.453-.373 1.093-.613 1.92-.72s1.88-.16 3.16-.16c1.307 0 2.36.053 3.16.16.827.107 1.467.347 1.92.72.48.347.8.853.96 1.52.187.667.28 1.56.28 2.68v14.6zm-7.04-1.12c0 .347.04.587.12.72.08.107.28.16.6.16.347 0 .56-.053.64-.16.08-.133.12-.373.12-.72V13.44c0-.347-.04-.573-.12-.68-.08-.133-.293-.2-.64-.2-.32 0-.52.067-.6.2-.08.107-.12.333-.12.68V25.8zM38.299 0v8.72c.347-.48.773-.813 1.28-1 .533-.187 1.187-.28 1.96-.28s1.4.093 1.88.28c.48.16.84.427 1.08.8.267.373.44.88.52 1.52.107.613.16 1.373.16 2.28v14.6c0 .933-.053 1.72-.16 2.36-.08.613-.253 1.107-.52 1.48s-.653.64-1.16.8-1.16.24-1.96.24c-.907 0-1.64-.093-2.2-.28-.56-.213-.987-.547-1.28-1v1.08h-5.32V0h5.72zm1.32 13.44c0-.32-.04-.547-.12-.68-.053-.133-.227-.2-.52-.2-.267 0-.467.053-.6.16a.736.736 0 0 0-.239.395l-.001.005v13a.989.989 0 0 0 .24.44c.133.08.333.12.6.12.293 0 .467-.067.52-.2.08-.133.12-.36.12-.68V13.44zm14.188-9.28h-5.68V0h5.68v4.16zm0 27.44h-5.68V7.64h5.68V31.6zm16.264 0h-5.76V13.44c0-.32-.04-.547-.12-.68-.053-.133-.227-.2-.52-.2-.267 0-.467.053-.6.16a.962.962 0 0 0-.278.393l-.002.007V31.6h-5.72V7.64h5.32v1.08c.293-.453.72-.773 1.28-.96.56-.213 1.293-.32 2.2-.32.8 0 1.467.08 2 .24.56.16 1 .427 1.32.8s.547.88.68 1.52c.133.613.2 1.387.2 2.32V31.6zm8.854 0h-5.8v-5.64h5.8v5.64zM104.573 0l-3.28 31.6h-8.16l-1.08-22.92h-.16l-1.32 22.92h-8.28L79.853 0h6.52l.68 22.16h.16L88.173 0h8l.68 22.16h.16l1-22.16h6.56z"/></symbol><symbol id="icon-skillset-1" viewBox="0 0 26 32"><path fill="#5221e6" style="fill:var(--color6,#5221e6)" d="M24.12 23.112v7.11h-9.932v-7.111h9.932zm0-21.334V16h-9.932V1.778h9.932zM8.513 16H1.419v14.222h7.094V16zm0-14.222v7.11H1.419v-7.11h7.094zM14.188 0c-.784 0-1.419.796-1.419 1.778V16c0 .982.635 1.778 1.419 1.778h9.932c.783 0 1.418-.796 1.418-1.778V1.778C25.538.796 24.903 0 24.12 0h-9.932zm0 21.333c-.784 0-1.419.796-1.419 1.778v7.111c0 .982.635 1.778 1.419 1.778h9.932c.783 0 1.418-.796 1.418-1.778v-7.11c0-.983-.635-1.779-1.418-1.779h-9.932zM0 16c0-.982.635-1.778 1.419-1.778h7.094c.783 0 1.419.796 1.419 1.778v14.222c0 .982-.636 1.778-1.42 1.778H1.42C.635 32 0 31.204 0 30.222V16zM1.419 0C.635 0 0 .796 0 1.778v7.11c0 .983.635 1.779 1.419 1.779h7.094c.783 0 1.419-.796 1.419-1.778V1.778C9.932.796 9.296 0 8.512 0H1.42z"/></symbol><symbol id="icon-skillset-2" viewBox="0 0 32 32"><path fill="#5221e6" style="fill:var(--color6,#5221e6)" d="M17.221 1.2 30.8 14.778l1.2-1.2L18.422 0l-1.2 1.2zM19.234 7.601a2.547 2.547 0 0 0-2.821-.534l.016-.006-9.423 4.04a4.25 4.25 0 0 0-2.343 2.529l-.009.03c-.081-.194-1.098 2.916-2.082 6.04l-.898 3.306c-.167.399-.57 1.747-.951 3.104l-.225.935c-.148.551-.27 1.036-.355 1.427-.079.364-.144.723-.144.981v.352l2.194 2.194h.352c.258 0 .617-.065.981-.144a27.348 27.348 0 0 0 1.651-.409l-.224.054c1.105-.297 2.51-.71 4.039-1.175 6.438-1.886 9.548-2.903 12.643-3.952l-3.297.97a4.248 4.248 0 0 0 2.549-2.324l.011-.027 4.038-9.424c.13-.296.206-.64.206-1.003 0-.703-.285-1.34-.746-1.8l-5.163-5.164zm-2.135 1.02a.85.85 0 0 1 .934.18l5.164 5.165a.844.844 0 0 1 .178.94l.002-.005-4.038 9.423a2.546 2.546 0 0 1-1.513 1.404l-.018.005c.196.08-2.902 1.093-6.014 2.074l-3.296.896c-1.522.463-2.907.87-3.984 1.159-.54.145-.994.258-1.347.335l-.207.043 8.672-8.672a2.547 2.547 0 1 0-1.193-1.185l-.007-.015-8.672 8.673c.012-.063.027-.132.043-.207.077-.353.19-.808.335-1.347.29-1.078.696-2.462 1.16-3.984 1.876-6.404 2.889-9.502 3.933-12.585l-.963 3.275a2.543 2.543 0 0 1 1.392-1.524l.016-.006 9.423-4.04z"/></symbol><symbol id="icon-skillset-3" viewBox="0 0 32 32"><path fill="none" stroke="#5221e6" style="stroke:var(--color6,#5221e6)" stroke-width="2" d="M31 16c0 8.284-6.716 15-15 15S1 24.284 1 16C1 7.716 7.716 1 16 1s15 6.716 15 15z"/><path fill="#5221e6" style="fill:var(--color6,#5221e6)" d="m21 16-7.5 4.33v-8.66L21 16z"/></symbol><symbol id="icon-skillset-4" viewBox="0 0 32 32"><path fill="#5221e6" style="fill:var(--color6,#5221e6)" d="M29.828 8.236H26.9L26.227 5.2A2.8 2.8 0 0 0 23.496 3h-10.18c-1.33 0-2.459.905-2.746 2.201l-.673 3.035h-.694V6.94c0-.73-.595-1.323-1.326-1.323H3.591c-.73 0-1.325.593-1.325 1.323v1.295h-.094A2.173 2.173 0 0 0 0 10.404v14.688c0 1.196.975 2.169 2.172 2.169h10.075a11.185 11.185 0 0 0 6.137 1.813h.016-.001a11.29 11.29 0 0 0 6.151-1.814h5.278A2.173 2.173 0 0 0 32 25.093V10.404a2.173 2.173 0 0 0-2.172-2.168zM11.79 5.47c.16-.72.788-1.223 1.526-1.223h10.165c.739 0 1.366.503 1.526 1.223l.613 2.765h-1.07a11.19 11.19 0 0 0-6.138-1.814h-.013.001c-2.266 0-4.379.667-6.152 1.814h-1.07l.613-2.765zM3.516 6.94c0-.042.034-.075.075-.075h4.286c.042 0 .076.033.076.075v1.295H3.516V6.94zm1.503 19.072v-6.777a.625.625 0 0 0-1.25 0v6.777H2.172a.923.923 0 0 1-.922-.921V10.404c0-.508.414-.92.922-.92h8.477a11.26 11.26 0 0 0-3.596 8.261v.003c0 3.257 1.385 6.197 3.597 8.265H5.02zm19.15 0c-1.609 1.135-3.61 1.814-5.771 1.814s-4.162-.679-5.802-1.836l.032.021c-2.613-1.824-4.325-4.848-4.325-8.265s1.712-6.441 4.325-8.264c1.609-1.136 3.61-1.815 5.771-1.815s4.162.679 5.802 1.836l-.032-.021c2.613 1.823 4.325 4.847 4.325 8.264s-1.712 6.441-4.325 8.265zm6.581-.921c0 .508-.414.92-.922.92h-3.68a11.26 11.26 0 0 0 3.596-8.261v-.003a11.29 11.29 0 0 0-3.596-8.265h3.68c.508 0 .922.413.922.921v14.688z"/><path fill="#5221e6" style="fill:var(--color6,#5221e6)" d="M18.37 10.111c-4.247 0-7.703 3.456-7.703 7.704s3.456 7.703 7.704 7.703a7.7 7.7 0 0 0 1.83-.219.587.587 0 1 0-.281-1.139l.004-.001a6.538 6.538 0 0 1-8.083-6.345c0-3.6 2.929-6.53 6.53-6.53 3.6 0 6.53 2.93 6.53 6.53v.012a6.467 6.467 0 0 1-1.135 3.67l.014-.022a.587.587 0 0 0 .97.66l.001-.002a7.602 7.602 0 0 0 1.323-4.305v-.014.001c0-4.248-3.456-7.704-7.704-7.704zM4.74 11.296a2.374 2.374 0 0 0-2.37 2.37 2.373 2.373 0 0 0 2.37 2.371 2.373 2.373 0 0 0 2.371-2.37 2.374 2.374 0 0 0-2.37-2.37zm0 3.468a1.098 1.098 0 0 1-.002-2.194h.002a1.098 1.098 0 0 1 .001 2.194z"/><path fill="#5221e6" style="fill:var(--color6,#5221e6)" d="M23.692 23.625a.626.626 0 0 0-.089-.215l.001.002a.556.556 0 0 0-.161-.163l-.002-.001a.614.614 0 0 0-.21-.087l-.004-.001a.586.586 0 0 0-.607.25l-.001.002a.6.6 0 0 0-.1.329v.002c0 .122.037.235.101.329l-.001-.002c.085.13.218.222.373.251l.004.001a.586.586 0 0 0 .535-.162.594.594 0 0 0 .161-.539l.001.004z"/></symbol><symbol id="icon-twitter-logo" viewBox="0 0 32 32"><path fill="#26a7de" style="fill:var(--color7,#26a7de)" d="M29.333 9.163c-.92.395-1.971.657-3.152.788 1.051-.657 1.969-1.707 2.364-2.889-1.051.656-2.233 1.051-3.416 1.313-.92-1.051-2.364-1.708-3.94-1.708-3.021 0-5.387 2.364-5.387 5.253 0 .395 0 .789.132 1.184-4.468-.264-8.408-2.365-11.167-5.517a4.69 4.69 0 0 0-.787 2.614v.013-.001c0 1.84.919 3.416 2.364 4.467-.92 0-1.708-.263-2.496-.657v.132c0 2.627 1.839 4.729 4.333 5.253-.393.133-.919.133-1.444.133-.393 0-.656 0-1.051-.133.686 2.146 2.66 3.674 4.991 3.68h.001c-1.84 1.444-4.204 2.232-6.7 2.232-.393 0-.92 0-1.313-.131 2.364 1.576 5.253 2.364 8.276 2.364 9.853 0 15.369-8.144 15.369-15.107v-.657c1.445-.656 2.364-1.576 3.021-2.627z"/></symbol><symbol id="icon-dots" viewBox="0 0 128 32"><path fill="#5b6876" style="fill:var(--color1,#5b6876)" d="M32 16c0 8.837-7.163 16-16 16S0 24.837 0 16 7.163 0 16 0s16 7.163 16 16zM80 16c0 8.837-7.163 16-16 16s-16-7.163-16-16S55.163 0 64 0s16 7.163 16 16zM128 16c0 8.837-7.163 16-16 16s-16-7.163-16-16 7.163-16 16-16 16 7.163 16 16z"/></symbol></defs></svg>